<?xml version="1.0" encoding="UTF-8"?>
<svg version="1.1" xmlns="http://www.w3.org/2000/svg" width="16" height="16">
<path d="M0 0 C0.99 0.33 1.98 0.66 3 1 C1.02 1.99 1.02 1.99 -1 3 C0.15173355 5.46800047 1.04783565 7.04783565 3 9 C2.625 11.125 2.625 11.125 2 13 C-0.375 12.6875 -0.375 12.6875 -3 12 C-3.66 11.01 -4.32 10.02 -5 9 C-3.02 9.66 -1.04 10.32 1 11 C-0.0209375 9.9171875 -0.0209375 9.9171875 -1.0625 8.8125 C-3 6 -3 6 -2.875 3.25 C-2 1 -2 1 0 0 Z " fill="#0E9650" transform="translate(12,1)"/>
<path d="M0 0 C1.2065625 0.0309375 1.2065625 0.0309375 2.4375 0.0625 C1.7775 0.43375 1.1175 0.805 0.4375 1.1875 C-1.85718448 2.95849371 -1.85718448 2.95849371 -2.0625 6.0625 C-1.85718448 9.16650629 -1.85718448 9.16650629 0.4375 10.9375 C1.0975 11.30875 1.7575 11.68 2.4375 12.0625 C0.77138095 12.105221 -0.89632885 12.10313832 -2.5625 12.0625 C-3.5625 11.0625 -3.5625 11.0625 -3.6953125 8.8125 C-3.69273438 7.905 -3.69015625 6.9975 -3.6875 6.0625 C-3.69007812 5.155 -3.69265625 4.2475 -3.6953125 3.3125 C-3.50465529 0.08254264 -3.25740423 0.07944888 0 0 Z " fill="#0E8296" transform="translate(5.5625,1.9375)"/>
<path d="" fill="#0E9650" transform="translate(0,0)"/>
</svg>
